<?xml version="1.0" encoding="UTF-8" standalone="no"?>
<svg width="538px" height="56px" viewBox="0 0 538 56" version="1.1" xmlns="http://www.w3.org/2000/svg" xmlns:xlink="http://www.w3.org/1999/xlink">
    <!-- Generator: Sketch 3.7.2 (28276) - http://www.bohemiancoding.com/sketch -->
    <title>perth-now-full</title>
    <desc>Created with Sketch.</desc>
    <defs>
        <linearGradient x1="49.9997232%" y1="6.56889526%" x2="49.9997232%" y2="95.389369%" id="linearGradient-1">
            <stop stop-color="#F4836A" offset="0%"></stop>
            <stop stop-color="#EF4237" offset="100%"></stop>
        </linearGradient>
        <linearGradient x1="50.0004151%" y1="93.4266267%" x2="50.0004151%" y2="4.60839192%" id="linearGradient-2">
            <stop stop-color="#F4836A" offset="0%"></stop>
            <stop stop-color="#EF4237" offset="100%"></stop>
        </linearGradient>
    </defs>
    <g id="Page-1" stroke="none" stroke-width="1" fill="none" fill-rule="evenodd">
        <g id="perth-now-full">
            <g>
                <path d="M179.115,0.052 C170.017,0.052 162.635,7.433 162.635,16.531 L162.635,39.469 C162.635,48.57 170.018,55.948 179.115,55.948 L302.787,55.948 C311.887,55.948 319.264,48.569 319.264,39.469 L319.264,16.53 C319.264,7.432 311.887,0.051 302.787,0.051 L179.115,0.051 L179.115,0.052 Z" id="Shape" fill="#EF4237"></path>
                <path d="M300.305,6.098 L181.596,6.098 C174.467,6.098 168.686,11.881 168.686,19.009 L168.686,28.429 C168.686,21.296 174.467,15.515 181.596,15.515 L300.305,15.515 C307.438,15.515 313.219,21.296 313.219,28.429 L313.219,19.009 C313.219,11.881 307.438,6.098 300.305,6.098 L300.305,6.098 Z" id="Shape" fill="url(#linearGradient-1)"></path>
                <path d="M300.305,49.922 L181.596,49.922 C174.467,49.922 168.686,44.139 168.686,37.011 L168.686,27.591 C168.686,34.724 174.467,40.507 181.596,40.507 L300.305,40.507 C307.438,40.507 313.219,34.724 313.219,27.591 L313.219,37.011 C313.219,44.139 307.438,49.922 300.305,49.922 L300.305,49.922 Z" id="Shape" fill="url(#linearGradient-2)" opacity="0.33"></path>
                <g id="Group">
                    <g transform="translate(176.000000, 9.000000)" id="Shape">
                        <path d="M0.449,1.786 L8.625,1.786 L8.625,7.307 L8.768,7.307 C10.346,3.866 13.573,0.926 19.309,0.926 C28.559,0.926 31.858,7.451 31.858,14.477 L31.858,36.206 L23.253,36.206 L23.253,18.78 C23.253,14.979 22.968,8.671 16.944,8.671 C11.278,8.671 9.055,12.829 9.055,17.419 L9.055,36.206 L0.45,36.206 L0.45,1.786 L0.449,1.786 Z" fill="#FFFFFF"></path>
                        <path d="M54.301,0.927 C64.697,0.927 73.014,8.169 73.014,18.995 C73.014,29.822 64.698,37.066 54.301,37.066 C43.903,37.066 35.586,29.822 35.586,18.995 C35.586,8.169 43.902,0.927 54.301,0.927 L54.301,0.927 Z M54.301,29.321 C60.612,29.321 64.41,24.374 64.41,18.995 C64.41,13.618 60.611,8.671 54.301,8.671 C47.991,8.671 44.19,13.618 44.19,18.995 C44.189,24.374 47.99,29.321 54.301,29.321 L54.301,29.321 Z" fill="#FFFFFF"></path>
                        <polygon fill="#FFFFFF" points="72.082 1.786 81.402 1.786 88.863 25.88 89.004 25.88 95.961 1.786 105.281 1.786 112.738 25.88 112.883 25.88 120.053 1.786 128.727 1.786 117.041 36.206 108.508 36.206 100.334 12.686 100.191 12.686 92.949 36.206 84.058 36.206"></polygon>
                        <path d="M128.531,25.593 C131.615,25.593 134.267,27.959 134.267,31.043 C134.267,34.126 131.685,36.636 128.531,36.636 C125.517,36.636 122.793,34.268 122.793,31.185 C122.793,28.103 125.375,25.593 128.531,25.593 L128.531,25.593 Z" fill="#FFFFFF"></path>
                        <path d="M173.641,12.112 C171.631,10.033 169.409,8.671 167.116,8.671 C160.805,8.671 157.005,13.618 157.005,18.995 C157.005,24.374 160.806,29.321 167.116,29.321 C169.768,29.321 172.208,28.173 173.784,26.094 L179.52,32.261 C176.006,35.774 170.125,37.066 167.116,37.066 C156.718,37.066 148.401,29.822 148.401,18.995 C148.401,8.169 156.717,0.927 167.116,0.927 C171.491,0.927 176.294,2.504 179.593,6.161 L173.641,12.112 L173.641,12.112 Z" fill="#231F20"></path>
                        <path d="M198.809,0.927 C209.205,0.927 217.522,8.169 217.522,18.995 C217.522,29.822 209.206,37.066 198.809,37.066 C188.411,37.066 180.096,29.822 180.096,18.995 C180.096,8.169 188.41,0.927 198.809,0.927 L198.809,0.927 Z M198.809,29.321 C205.116,29.321 208.918,24.374 208.918,18.995 C208.918,13.618 205.115,8.671 198.809,8.671 C192.5,8.671 188.698,13.618 188.698,18.995 C188.697,24.374 192.5,29.321 198.809,29.321 L198.809,29.321 Z" fill="#231F20"></path>
                        <path d="M220.893,1.786 L229.067,1.786 L229.067,7.165 L229.21,7.165 C230.718,3.938 234.017,0.927 239.753,0.927 C245.058,0.927 248.716,3.007 250.507,7.308 C253.017,2.934 256.675,0.927 261.837,0.927 C271.015,0.927 274.241,7.452 274.241,15.697 L274.241,36.207 L265.639,36.207 L265.639,16.702 C265.639,12.4 264.344,8.672 259.256,8.672 C253.877,8.672 251.871,13.117 251.871,17.564 L251.871,36.208 L243.264,36.208 L243.264,15.698 C243.264,11.468 241.543,8.673 237.387,8.673 C231.719,8.673 229.498,12.831 229.498,17.421 L229.498,36.208 L220.893,36.208 L220.893,1.786 L220.893,1.786 Z" fill="#231F20"></path>
                        <path d="M283.635,25.593 C286.719,25.593 289.371,27.959 289.371,31.043 C289.371,34.126 286.789,36.636 283.635,36.636 C280.621,36.636 277.899,34.268 277.899,31.185 C277.898,28.103 280.48,25.593 283.635,25.593 L283.635,25.593 Z" fill="#231F20"></path>
                        <path d="M316.328,31.474 L316.115,31.474 C313.677,35.345 309.662,37.067 305.074,37.067 C298.691,37.067 292.525,33.552 292.525,26.741 C292.525,15.554 305.574,14.765 314.179,14.765 L316.327,14.765 L316.327,13.834 C316.327,9.603 313.032,7.38 308.442,7.38 C304.858,7.38 301.557,8.814 299.264,10.965 L294.746,6.448 C298.547,2.574 303.926,0.927 309.375,0.927 C324.074,0.927 324.074,11.54 324.074,16.414 L324.074,36.206 L316.326,36.206 L316.326,31.474 L316.328,31.474 Z M315.828,20.788 L314.035,20.788 C309.306,20.788 301.129,21.147 301.129,26.095 C301.129,29.248 304.356,30.613 307.152,30.613 C313.033,30.613 315.828,27.529 315.828,22.724 L315.828,20.788 L315.828,20.788 Z" fill="#231F20"></path>
                        <path d="M361.863,36.206 L353.687,36.206 L353.687,30.683 L353.544,30.683 C351.968,34.126 348.739,37.067 343.003,37.067 C333.755,37.067 330.454,30.543 330.454,23.512 L330.454,1.786 L339.059,1.786 L339.059,19.211 C339.059,23.013 339.346,29.321 345.37,29.321 C351.036,29.321 353.257,25.163 353.257,20.573 L353.257,1.786 L361.862,1.786 L361.862,36.206 L361.863,36.206 Z" fill="#231F20"></path>
                    </g>
                    <g id="Shape" fill="#231F20">
                        <path d="M18.102,9.841 C8.204,9.841 0.178,17.835 0.178,27.696 C0.178,27.78 0.19,27.862 0.19,27.946 L0.137,28.027 L0.137,55.456 L8.453,55.456 L8.453,42.726 C11.24,44.507 14.547,45.55 18.101,45.55 C28.003,45.55 36.029,37.558 36.029,27.696 C36.029,17.834 28.004,9.841 18.102,9.841 L18.102,9.841 Z M18.104,37.392 C12.727,37.392 8.368,33.051 8.368,27.697 C8.368,22.342 12.727,17.999 18.104,17.999 C22.411,17.999 26.055,20.788 27.34,24.647 C27.586,25.569 27.717,26.533 27.717,27.511 C27.717,29.581 27.141,31.578 26.076,33.249 C24.316,35.753 21.404,37.392 18.104,37.392 L18.104,37.392 Z"></path>
                        <path d="M156.025,27.655 C155.98,16.346 151.648,9.841 140.986,9.841 C137.445,9.841 134.316,10.777 131.377,13.251 L131.377,0.094 L123.061,0.094 L123.061,45.313 L131.377,45.313 L131.377,26.228 C131.377,22.183 133.481,17.999 140.418,17.999 C144.842,17.999 147.682,21.033 147.682,24.971 C147.719,25.852 147.727,26.657 147.727,27.301 L147.727,45.314 L156.041,45.314 L156.041,27.698 C156.035,27.682 156.029,27.668 156.025,27.655 L156.025,27.655 Z"></path>
                        <path d="M118.576,36.997 L118.576,36.977 C118.566,36.983 118.553,36.991 118.541,36.997 C114.752,36.804 111.1,33.968 109.869,30.893 C109.59,30.197 109.43,29.046 109.43,27.728 L109.43,17.835 L118.576,17.835 L118.576,10.683 L109.43,10.683 L109.43,0.935 L101.114,0.935 L101.114,26 C101.114,27.177 101.227,29.653 101.446,30.767 C103.057,38.982 110.323,45.181 119.04,45.181 L119.04,37.021 C118.885,37.021 118.73,37.005 118.576,36.997 L118.576,36.997 Z"></path>
                        <path d="M64.264,33.108 C62.516,35.692 59.553,37.391 56.192,37.391 C51.778,37.391 48.055,34.463 46.862,30.455 L65.518,30.455 C65.518,30.457 65.518,30.459 65.516,30.461 L73.969,30.461 C74.063,29.534 74.115,28.635 74.115,27.695 C74.115,17.834 66.092,9.84 56.189,9.84 C46.289,9.84 38.263,17.834 38.263,27.695 C38.263,37.556 46.288,45.549 56.189,45.549 C62.115,45.549 67.367,42.687 70.63,38.276 L64.264,33.108 L64.264,33.108 Z M56.191,17.998 C60.363,17.998 63.914,20.619 65.298,24.294 L47.084,24.294 C48.469,20.619 52.018,17.998 56.191,17.998 L56.191,17.998 Z"></path>
                        <path d="M95.957,9.907 C95.635,9.868 95.307,9.841 94.971,9.841 C94.916,9.841 94.867,9.853 94.813,9.853 C94.743,9.853 94.674,9.841 94.604,9.841 C91.063,9.841 87.188,10.688 84.991,13.87 L84.991,10.682 L76.679,10.682 L76.679,45.312 L84.991,45.312 L84.991,27.432 C84.991,27.399 84.995,27.348 84.995,27.311 C84.995,22.499 87.807,17.998 94.604,17.998 C95.795,17.998 96.932,18.223 97.987,18.612 L97.987,10.169 C97.32,10.042 96.645,9.964 95.957,9.907 L95.957,9.907 Z"></path>
                    </g>
                </g>
            </g>
        </g>
    </g>
</svg>