<?xml version="1.0" encoding="UTF-8" standalone="no"?>
<svg width="180px" height="180px" viewBox="0 0 180 180" version="1.1" xmlns="http://www.w3.org/2000/svg" xmlns:xlink="http://www.w3.org/1999/xlink">
    <!-- Generator: Sketch 3.7.2 (28276) - http://www.bohemiancoding.com/sketch -->
    <title>hearald-sun-icon</title>
    <desc>Created with Sketch.</desc>
    <defs>
        <linearGradient x1="50%" y1="0%" x2="50%" y2="100%" id="linearGradient-1">
            <stop stop-color="#237ABD" offset="0%"></stop>
            <stop stop-color="#1566A5" offset="100%"></stop>
        </linearGradient>
        <path d="M102.254451,123.679558 L105.850982,123.679558 C106.570749,122.422652 107.919736,119.812922 109.717618,119.812922 C112.59515,119.812922 116.820135,124.839779 127.880602,124.839779 C137.860651,124.839779 150,117.298343 150,102.892265 C150,77.8508287 114.663137,85.2955801 114.663137,70.2127072 C114.663137,63.8314917 119.42833,60.4475138 125.093616,60.4475138 C134.533456,60.4475138 140.288521,69.6325967 142.896716,80.1712707 L146.49248,80.1712707 L146.49248,57.160221 L142.717158,57.160221 C141.727287,58.9005525 141.008287,61.1243094 139.209638,61.1243094 C136.781768,61.1243094 133.544352,56 123.744629,56 C112.414058,56 102.793125,63.9281768 102.793125,77.8508287 C102.793125,99.9917127 137.592081,95.1574586 137.592081,109.176796 C137.592081,117.298343 132.286679,120.392265 126.082719,120.392265 C114.663137,120.392265 108.637968,108.69337 106.210098,98.1546961 L102.254451,98.1546961 L102.254451,123.679558 Z M53.6479435,86.5524862 L53.6479435,67.4096071 C53.6479435,62.5745856 55.8064764,61.0276243 61.5600061,61.0276243 L61.5600061,57.160221 L30,57.160221 L30,61.0276243 C36.3835175,61.0276243 38.5428177,62.5745856 38.5428177,67.4096071 L38.5428177,113.430939 C38.5428177,118.265193 36.3835175,119.812922 30,119.812922 L30,123.679558 L61.5600061,123.679558 L61.5600061,119.812922 C55.8064764,119.812922 53.6479435,118.265193 53.6479435,113.430939 L53.6479435,91 L73.7891344,91 L73.7891344,113.430939 C73.7891344,118.265193 71.6313689,119.812922 65.8763045,119.812922 L65.8763045,123.679558 L97.4378453,123.679558 L97.4378453,119.812922 C91.0527931,119.812922 88.8950276,118.265193 88.8950276,113.430939 L88.8950276,67.4096071 C88.8950276,62.5745856 91.0527931,61.0276243 97.4378453,61.0276243 L97.4378453,57.160221 L65.8763045,57.160221 L65.8763045,61.0276243 C71.6313689,61.0276243 73.7891344,62.5745856 73.7891344,67.4096071 L73.7891344,86.5524862 L53.6479435,86.5524862 Z" id="path-2"></path>
        <filter x="-50%" y="-50%" width="200%" height="200%" filterUnits="objectBoundingBox" id="filter-3">
            <feOffset dx="0" dy="0" in="SourceAlpha" result="shadowOffsetOuter1"></feOffset>
            <feGaussianBlur stdDeviation="2" in="shadowOffsetOuter1" result="shadowBlurOuter1"></feGaussianBlur>
            <feColorMatrix values="0 0 0 0 0.0156862745   0 0 0 0 0.282352941   0 0 0 0 0.48627451  0 0 0 1 0" type="matrix" in="shadowBlurOuter1"></feColorMatrix>
        </filter>
    </defs>
    <g id="Page-1" stroke="none" stroke-width="1" fill="none" fill-rule="evenodd">
        <g id="hearald-sun-icon">
            <rect id="bg-fill" fill="url(#linearGradient-1)" x="0" y="0" width="180" height="180"></rect>
            <g id="HS">
                <use fill="black" fill-opacity="1" filter="url(#filter-3)" xlink:href="#path-2"></use>
                <use fill="#FEFEFE" fill-rule="evenodd" xlink:href="#path-2"></use>
            </g>
        </g>
    </g>
</svg>