<?xml version="1.0" encoding="UTF-8" standalone="no"?>
<svg width="466px" height="70px" viewBox="0 0 466 70" version="1.1" xmlns="http://www.w3.org/2000/svg" xmlns:xlink="http://www.w3.org/1999/xlink">
    <!-- Generator: Sketch 3.7.2 (28276) - http://www.bohemiancoding.com/sketch -->
    <title>HS-Full-Logo</title>
    <desc>Created with Sketch.</desc>
    <defs></defs>
    <g id="Page-1" stroke="none" stroke-width="1" fill="none" fill-rule="evenodd">
        <g id="HS-Full-Logo" fill="#000000">
            <g id="HS-Full_logo">
                <path d="M44.576,31.177 L44.576,12.254 C44.576,7.483 42.398,5.951 36.588,5.951 L36.588,2.134 L68.41,2.134 L68.41,5.951 C61.976,5.951 59.803,7.483 59.803,12.254 L59.803,57.746 C59.803,62.525 61.977,64.051 68.41,64.051 L68.41,67.873 L36.588,67.873 L36.588,64.051 C42.399,64.051 44.576,62.526 44.576,57.746 L44.576,35.571 L24.26,35.571 L24.26,57.746 C24.26,62.525 26.442,64.051 32.237,64.051 L32.237,67.873 L0.418,67.873 L0.418,64.051 C6.863,64.051 9.027,62.526 9.027,57.746 L9.027,12.254 C9.027,7.483 6.863,5.951 0.418,5.951 L0.418,2.134 L32.236,2.134 L32.236,5.951 C26.441,5.951 24.259,7.483 24.259,12.254 L24.259,31.177 L44.576,31.177 L44.576,31.177 Z" id="Shape"></path>
                <path d="M82.057,41.215 C82.782,30.225 85.684,25.255 89.85,25.255 C94.198,25.255 96.381,29.275 96.381,41.215 L82.057,41.215 L82.057,41.215 Z M110.885,45.605 C110.885,30.413 102.356,21.813 91.301,21.813 C75.893,21.813 67.545,34.615 67.545,45.421 C67.545,56.214 75.893,69.019 91.301,69.019 C101.822,69.019 106.983,64.05 110.612,56.976 L107.714,55.074 C104.624,59.855 99.644,64.621 93.837,64.621 C84.14,64.621 82.058,54.785 82.058,45.605 L110.885,45.605 L110.885,45.605 Z" id="Shape"></path>
                <path d="M114.238,67.873 L114.238,64.051 C120.304,64.051 121.218,62.143 121.218,57.746 L121.218,33.087 C121.218,28.696 120.304,26.784 114.238,26.784 L114.238,23.344 L133.363,22.961 L133.363,33.19 L133.545,33.19 C135.451,28.597 138.889,21.814 145.785,21.814 C150.683,21.814 154.209,25.445 154.209,30.034 C154.209,34.523 151.496,37.487 147.684,37.487 C143.422,37.487 141.522,34.431 141.522,30.702 C141.522,29.36 141.7,28.411 141.887,27.357 C136.535,31.269 133.901,41.785 133.901,55.262 C133.901,62.143 134.813,64.051 142.43,64.051 L142.43,67.873 L114.238,67.873 L114.238,67.873 Z" id="Shape"></path>
                <path d="M179.896,54.686 C179.896,60.329 177.626,63.862 173.724,63.862 C169.74,63.862 168.189,60.424 168.189,56.694 C168.189,50.098 174.361,45.317 179.896,43.979 L179.896,54.686 L179.896,54.686 Z M193.131,35.098 C193.131,25.54 187.049,21.814 176.356,21.814 C163.575,21.814 157.413,27.644 157.413,33.376 C157.413,37.962 160.224,40.732 164.212,40.732 C168.015,40.732 170.644,37.582 170.644,34.135 C170.644,30.609 168.48,28.311 165.662,27.928 L165.662,27.732 C167.478,26.683 169.648,26.212 171.728,26.212 C177.082,26.212 179.898,28.41 179.898,34.135 L179.898,39.687 C171.728,42.076 154.236,45.705 154.236,57.841 C154.236,66.255 161.3,69.019 168.386,69.019 C173.726,69.019 178.077,67.203 181.441,62.812 C183.525,67.017 186.418,69.019 190.953,69.019 C198.486,69.019 202.385,64.05 202.385,57.644 L202.385,55.835 L199.307,55.835 C198.842,59.466 198.018,62.712 195.946,62.712 C193.758,62.712 193.134,60.901 193.134,56.976 L193.134,35.098 L193.131,35.098 Z" id="Shape"></path>
                <path d="M229.91,67.873 L202.256,67.873 L202.256,64.051 C208.781,64.051 209.69,62.143 209.69,57.746 L209.69,13.022 C209.69,8.624 208.782,6.716 202.62,6.716 L202.62,3.089 L222.936,2.702 L222.936,57.745 C222.936,62.141 223.832,64.05 229.911,64.05 L229.911,67.873 L229.91,67.873 Z" id="Shape"></path>
                <path d="M245.783,44.178 C245.783,34.999 247.406,26.213 253.396,26.213 C258.289,26.213 261.011,32.317 261.011,46.374 C261.011,55.548 259.013,64.622 252.859,64.622 C247.406,64.621 245.783,55.547 245.783,44.178 L245.783,44.178 Z M274.242,2.703 L253.947,3.09 L253.947,6.717 C260.109,6.717 261.011,8.624 261.011,13.023 L261.011,26.213 C258.57,23.629 255.214,21.815 251.036,21.815 C241.061,21.815 231.274,31.375 231.274,45.23 C231.274,59.468 240.336,69.021 250.672,69.021 C256.488,69.021 258.475,66.728 261.465,63.677 L261.651,63.677 L261.651,68.456 L280.411,68.067 L280.411,64.622 C275.159,64.622 274.241,62.714 274.241,58.317 L274.241,2.703 L274.242,2.703 Z" id="Shape"></path>
                <path d="M306.131,42.646 L310.135,42.646 C312.584,53.062 318.658,64.621 330.166,64.621 C336.42,64.621 341.773,61.568 341.773,53.545 C341.773,39.688 306.683,44.463 306.683,22.579 C306.683,8.817 316.388,0.98 327.818,0.98 C337.693,0.98 340.953,6.051 343.41,6.051 C345.215,6.051 345.935,3.844 346.941,2.134 L350.74,2.134 L350.74,24.868 L347.119,24.868 C344.5,14.457 338.683,5.382 329.18,5.382 C323.457,5.382 318.659,8.723 318.659,15.029 C318.659,29.938 354.284,22.578 354.284,47.329 C354.284,61.567 342.05,69.018 331.981,69.018 C320.829,69.018 316.571,64.049 313.667,64.049 C311.86,64.049 310.493,66.635 309.769,67.871 L306.132,67.871 L306.132,42.646 L306.131,42.646 Z" id="Shape"></path>
                <path d="M377.33,56.408 C377.33,60.994 378.785,63.861 382.135,63.861 C388.03,63.861 390.115,57.552 390.115,52.398 L390.115,33.087 C390.115,28.696 389.209,26.784 382.681,26.784 L382.681,23.344 L403.355,22.961 L403.355,57.746 C403.355,62.142 404.257,64.051 410.607,64.051 L410.607,67.496 L390.923,67.873 L390.923,62.713 C386.761,67.111 383.861,69.02 377.7,69.02 C368.268,69.02 364.083,64.436 364.083,54.686 L364.083,33.088 C364.083,28.697 363.196,26.785 357.562,26.785 L357.562,23.345 L377.33,22.962 L377.33,56.408 L377.33,56.408 Z" id="Shape"></path>
                <path d="M413.445,67.873 L413.445,64.051 C419.246,64.051 420.148,62.143 420.148,57.746 L420.148,33.087 C420.148,28.696 419.246,26.784 413.627,26.784 L413.627,23.344 L432.664,22.961 L432.664,29.939 C436.566,25.155 440.098,21.814 446.807,21.814 C454.334,21.814 459.405,26.401 459.405,35.767 L459.405,57.746 C459.405,62.142 460.319,64.051 465.583,64.051 L465.583,67.873 L446.17,67.873 L446.17,32.518 C446.17,28.697 444.631,26.973 442.086,26.973 C437.02,26.973 433.395,35.767 433.395,42.076 L433.395,57.746 C433.395,62.142 434.291,64.051 440.645,64.051 L440.645,67.873 L413.445,67.873 L413.445,67.873 Z" id="Shape"></path>
            </g>
        </g>
    </g>
</svg>