<?xml version="1.0" encoding="UTF-8" standalone="no"?>
<svg width="496px" height="63px" viewBox="0 0 496 63" version="1.1" xmlns="http://www.w3.org/2000/svg" xmlns:xlink="http://www.w3.org/1999/xlink">
    <!-- Generator: Sketch 3.7.2 (28276) - http://www.bohemiancoding.com/sketch -->
    <title>the-advertiser-full</title>
    <desc>Created with Sketch.</desc>
    <defs></defs>
    <g id="Page-1" stroke="none" stroke-width="1" fill="none" fill-rule="evenodd">
        <g id="the-advertiser-full" fill="#000000">
            <path d="M480.477,30.976 L480.477,21.818 C475.123,23.456 470.024,24.408 464.844,25.099 L464.844,27.522 C468.816,28.467 469.507,28.816 469.507,33.217 L469.507,52.051 C469.507,57.412 468.642,57.842 463.978,58.358 L463.978,61.124 L487.65,61.124 L487.65,58.358 C480.994,57.754 480.477,57.413 480.477,52.051 L480.477,35.983 C481.947,32.614 483.671,31.493 485.315,31.493 C486.784,31.493 487.818,32.098 489.288,33.305 C489.897,33.828 490.757,34.082 491.972,33.655 C494.3,32.788 496.205,30.373 496.205,27.259 C496.205,24.321 493.87,21.905 490.415,21.905 C487.214,21.905 483.846,25.615 480.739,30.975 L480.477,30.975 M445.922,25.359 C449.29,25.359 451.19,29.848 451.19,34.257 C451.103,35.726 450.674,35.902 449.378,35.982 C445.835,36.07 442.642,36.156 439.099,36.244 C439.616,29.333 442.642,25.359 445.835,25.359 L445.922,25.359 M459.919,50.502 C456.893,53.09 453.699,54.211 450.324,54.211 C444.192,54.211 439.098,49.549 438.663,40.303 C447.131,39.961 457.671,39.096 459.227,38.92 C461.213,38.666 461.729,37.539 461.729,35.815 C461.817,28.729 455.684,21.906 447.734,21.906 L447.647,21.906 C442.983,21.906 438.234,24.233 434.429,28.039 C430.805,31.581 428.034,37.11 428.034,43.673 C428.034,53.609 434.429,62.165 445.921,62.165 C449.464,62.165 456.201,60.433 461.468,52.575 L459.919,50.502 M423.284,33.305 C423.117,31.58 422.077,25.448 421.212,23.455 C419.225,22.596 416.89,21.817 412.918,21.905 C403.847,21.905 398.405,27.433 398.405,34.17 C398.405,41.598 405.404,44.973 409.375,46.959 C414.736,49.463 415.944,51.621 415.944,54.125 C415.944,56.721 414.045,58.795 411.194,58.795 C405.921,58.795 401.948,52.83 400.048,47.389 L397.451,47.651 C397.539,51.797 398.317,57.842 398.834,59.225 C400.565,60.52 405.142,62.164 409.724,62.164 C416.977,62.164 425.19,57.93 425.19,49.375 C425.19,42.639 420.52,39.611 413.521,36.594 C409.121,34.6 407.127,32.614 407.127,29.937 C407.127,27.173 409.288,25.274 411.535,25.274 C415.595,25.274 418.359,28.816 420.693,34.083 L423.284,33.305 M396.674,61.123 L396.674,58.357 C391.494,57.668 391.059,57.238 391.059,51.273 L391.059,21.905 C386.222,23.287 380.525,24.407 375.338,25.011 L375.338,27.521 C379.485,28.211 380.089,28.466 380.089,34.169 L380.089,51.273 C380.089,57.412 379.572,57.753 374.56,58.357 L374.56,61.123 L396.674,61.123 M384.839,16.457 C388.382,16.457 391.059,13.692 391.059,10.411 C391.059,6.956 388.382,4.367 384.926,4.367 C381.645,4.367 378.793,6.956 378.793,10.411 C378.793,13.692 381.645,16.457 384.839,16.457 M372.923,57.93 L372.058,54.905 C370.589,55.594 369.205,55.944 367.737,55.944 C365.925,55.944 362.811,55.165 362.811,48.428 L362.811,27.085 L370.763,27.085 C372.145,26.394 372.319,23.891 371.28,22.939 L362.811,22.939 L362.811,10.412 L361.605,9.895 L351.842,16.631 L351.842,22.939 L348.387,22.939 L345.964,26.052 L346.4,27.085 L351.842,27.085 L351.842,51.273 C351.842,59.05 355.726,62.164 362.382,62.164 C362.986,62.164 364.368,61.9 365.925,61.211 L372.923,57.93 M328.6,30.976 L328.6,21.818 C323.246,23.456 318.153,24.408 312.966,25.099 L312.966,27.522 C316.939,28.467 317.63,28.816 317.63,33.217 L317.63,52.051 C317.63,57.412 316.764,57.842 312.101,58.358 L312.101,61.124 L335.772,61.124 L335.772,58.358 C329.124,57.754 328.6,57.413 328.6,52.051 L328.6,35.983 C330.07,32.614 331.8,31.493 333.445,31.493 C334.914,31.493 335.947,32.098 337.416,33.305 C338.02,33.828 338.887,34.082 340.094,33.655 C342.43,32.788 344.327,30.373 344.327,27.259 C344.327,24.321 341.993,21.905 338.537,21.905 C335.344,21.905 331.975,25.615 328.862,30.975 L328.6,30.975 M294.045,25.359 C297.413,25.359 299.319,29.848 299.319,34.257 C299.231,35.726 298.796,35.902 297.501,35.982 C293.958,36.07 290.765,36.156 287.222,36.244 C287.739,29.333 290.765,25.359 293.958,25.359 L294.045,25.359 M308.041,50.502 C305.015,53.09 301.821,54.211 298.454,54.211 C292.32,54.211 287.222,49.549 286.792,40.303 C295.253,39.961 305.794,39.096 307.351,38.92 C309.337,38.666 309.853,37.539 309.853,35.815 C309.941,28.729 303.808,21.906 295.864,21.906 L295.777,21.906 C291.107,21.906 286.357,24.233 282.559,28.039 C278.929,31.581 276.164,37.11 276.164,43.673 C276.164,53.609 282.559,62.165 294.045,62.165 C297.588,62.165 304.324,60.433 309.599,52.575 L308.041,50.502 M280.076,22.938 L264.523,22.938 L264.523,25.702 C269.186,26.481 269.536,27.6 268.669,30.453 C266.684,36.418 263.919,44.281 262.276,48.254 C260.98,44.711 257.866,36.244 255.714,30.198 C254.587,27.173 255.017,26.568 258.995,25.702 L258.995,22.938 L237.651,22.938 L237.651,25.702 C241.797,26.655 242.924,27.6 244.481,31.405 C248.715,41.343 252.6,51.361 256.92,62.076 L260.288,62.076 C265.475,48.945 269.702,38.578 272.902,31.58 C274.714,27.521 275.754,26.568 280.075,25.702 L280.075,22.938 M222.535,54.211 C220.636,55.426 219.341,55.594 217.784,55.594 C213.812,55.594 207.68,51.535 207.593,40.906 C207.593,27.775 214.241,25.528 216.316,25.528 C218.826,25.528 221.153,26.997 222.536,30.023 L222.536,54.211 M239.558,56.117 L237.66,55.943 C234.029,55.505 233.594,55.164 233.594,50.24 L233.594,0.387 C229.192,1.688 222.281,2.809 216.752,3.5 L216.752,6.177 C222.02,6.781 222.536,7.217 222.536,11.88 L222.536,22.333 C220.637,22.071 219.683,21.904 218.993,21.904 C205.519,21.904 195.322,31.491 195.322,43.241 C195.322,56.116 205.607,62.163 212.947,62.163 C213.988,62.163 215.195,61.987 217.356,60.604 L222.536,57.237 L222.536,62.249 C229.359,60.263 237.484,59.224 239.558,58.88 L239.558,56.117 M171.79,37.25 L157.131,37.25 C159.572,30.58 161.921,23.811 164.552,16.953 L164.832,16.953 L171.79,37.25 M199.702,62.25 L199.702,58.963 C193.778,58.211 192.557,56.984 189.362,48.717 C183.251,32.553 177.426,16.196 171.415,-0.25 L166.617,0.971 L147.354,49.282 C144.253,57.171 143.126,58.212 136.92,58.964 L136.826,62.251 L157.881,62.251 L157.881,58.964 C151.018,58.112 150.828,56.796 152.145,52.288 C153.27,48.53 154.493,45.142 155.526,42.229 L173.575,42.229 C174.984,46.086 176.392,50.034 177.332,52.85 C178.835,56.985 178.366,58.112 172.824,58.963 L172.824,62.25 L199.702,62.25 M113.831,25.358 C117.2,25.358 119.101,29.849 119.101,34.257 C119.016,35.726 118.583,35.9 117.289,35.984 C113.746,36.072 110.55,36.158 107.008,36.244 C107.526,29.332 110.55,25.358 113.746,25.358 L113.831,25.358 L113.831,25.358 Z M127.827,50.498 C124.804,53.09 121.606,54.213 118.237,54.213 C112.103,54.213 107.007,49.549 106.575,40.305 C115.042,39.959 125.581,39.096 127.137,38.924 C129.123,38.662 129.641,37.541 129.641,35.813 C129.728,28.727 123.594,21.903 115.646,21.903 L115.56,21.903 C110.895,21.903 106.142,24.236 102.341,28.037 C98.712,31.58 95.948,37.108 95.948,43.675 C95.948,53.611 102.341,62.163 113.831,62.163 C117.374,62.163 124.112,60.434 129.382,52.573 L127.827,50.498 L127.827,50.498 Z M96.985,61.125 L96.985,58.361 C92.495,57.584 91.975,57.584 91.975,52.054 L91.975,36.243 C91.975,26.739 87.569,21.901 80.053,21.901 C75.821,21.901 71.5,24.494 68.563,27.516 L68.563,0.389 C63.38,1.686 57.247,2.895 52.667,3.499 L52.667,6.005 C57.159,6.523 57.505,6.523 57.505,11.793 L57.505,52.053 C57.505,57.496 56.987,57.84 52.064,58.36 L52.064,61.124 L72.539,61.124 L72.539,58.36 C68.91,57.755 68.564,57.149 68.564,52.397 L68.564,30.713 C70.378,28.899 72.71,28.293 74.785,28.293 C78.154,28.293 81.005,30.54 81.005,37.193 L81.005,52.396 C81.005,57.148 80.746,57.753 76.6,58.359 L76.6,61.123 L96.985,61.123 L96.985,61.125 Z M50.595,19.57 C50.162,14.042 49.73,6.439 49.644,2.809 L47.572,2.809 C46.102,4.451 44.892,4.97 42.56,4.97 L7.831,4.97 C5.411,4.97 4.288,4.796 2.906,2.809 L0.833,2.809 C0.659,7.215 0.142,13.522 -0.204,19.829 L2.906,19.829 C4.029,15.51 5.153,12.572 6.534,11.103 C7.831,9.72 9.386,8.771 16.47,8.771 L19.408,8.771 L19.408,49.634 C19.408,56.978 18.543,57.497 11.287,58.101 L11.287,61.124 L39.451,61.124 L39.451,58.101 C31.847,57.497 30.984,56.978 30.984,49.634 L30.984,8.771 L34.958,8.771 C39.969,8.771 42.215,9.289 43.684,10.844 C45.239,12.399 46.449,15.25 47.485,19.742 L50.595,19.57 L50.595,19.57 Z"></path>
        </g>
    </g>
</svg>