<?xml version="1.0" encoding="UTF-8" standalone="no"?>
<svg width="292px" height="43px" viewBox="0 0 292 43" version="1.1" xmlns="http://www.w3.org/2000/svg" xmlns:xlink="http://www.w3.org/1999/xlink">
    <!-- Generator: Sketch 3.7.2 (28276) - http://www.bohemiancoding.com/sketch -->
    <title>DT</title>
    <desc>Created with Sketch.</desc>
    <defs>
        <path d="M56.4,5.7 C56.4,8.1 58.3,10.1 60.6,10.1 C62.9,10.1 64.8,8.2 64.8,5.7 C64.8,3.3 62.9,1.3 60.6,1.3 C58.2,1.4 56.4,3.3 56.4,5.7 L56.4,5.7 Z M77.4,0.4 L77.4,30 C77.4,32.4 78.6,32.6 79.8,32.6 L80.1,32.6 L80.1,34.6 L67.9,34.6 L67.9,32.6 L68.2,32.6 C69.5,32.6 70.7,32.6 70.7,29.3 L70.7,9.3 C70.7,7 70.2,5.6 68,5.3 L67.7,5.3 L67.7,3.4 L77.4,0.4 L77.4,0.4 Z M54.5,14 L54.5,15.9 L54.8,15.9 C57.1,16.2 57.5,17.6 57.5,19.9 L57.5,29.2 C57.5,32.5 56.3,32.5 55,32.5 L54.7,32.5 L54.7,34.5 L66.9,34.5 L66.9,32.5 L66.6,32.5 C65.4,32.5 64.2,32.3 64.2,29.9 L64.2,11.1 L54.5,14 L54.5,14 Z M102.9,12.5 L102.9,14.4 L102.7,14.5 C100.2,15.2 99.4,16.9 98.5,19.2 L98.3,19.7 L91.9,34.6 C90.3,38.3 88.3,43 83.2,43 C81.3,43 79.3,41.8 79.3,39.5 C79.3,37.7 80.7,36.3 82.5,36.3 C83.8,36.3 84.5,37.1 85.2,37.8 C85.6,38.2 86,38.6 86.3,38.6 C87.4,38.6 88.9,35.8 89.5,34.3 C89.4,34.1 82,17.6 82,17.6 L82,17.5 C81.3,15.9 80.8,14.7 79,14.5 L78.7,14.5 L78.7,12.5 L90.4,12.5 L90.4,14.5 L90.1,14.5 C89.4,14.6 88.5,14.9 88.5,15.9 C88.5,16.7 88.9,17.5 89.2,18.2 L89.3,18.4 C89.3,18.4 92.3,25.1 92.8,26.1 C93.2,25.1 95.7,19.4 95.7,19.4 C96.1,18.6 96.5,17.6 96.5,16.8 C96.5,15.6 96.1,14.9 93.9,14.5 L93.6,14.5 L93.6,12.5 L102.9,12.5 L102.9,12.5 L102.9,12.5 Z M-0.1,1.3 L-0.1,3.4 L0.2,3.4 C3.1,3.4 4,4.3 4,7.2 L4,28.7 C4,31.6 3.1,32.5 0.2,32.5 L-0.1,32.5 L-0.1,34.6 L14.9,34.6 C17.2,34.6 19.9,34.5 22.4,33.4 C28.1,31.1 31.8,25.2 31.8,18.3 C31.8,10.8 28.3,5.1 22.2,2.6 C20.1,1.8 17.8,1.4 14.9,1.4 L-0.1,1.4 L-0.1,1.3 Z M11.6,28.2 L11.6,7.5 C11.6,4.7 11.6,3.7 14.6,3.7 C19.3,3.7 24,5.3 24,17.1 C24,30.4 19.2,32.1 15.1,32.1 C11.6,32.2 11.6,31.5 11.6,28.2 L11.6,28.2 Z M43,11.9 C44,11.9 47.5,12 49.4,13.6 C51.5,15.4 51.5,17.6 51.5,19.5 L51.5,29 L51.5,29.3 C51.5,30.5 51.6,31.2 52.6,31.2 C52.9,31.2 53.2,31.1 53.6,31 L53.9,30.9 L54.4,32.1 L54.3,32.2 C53.2,33.9 51.2,35 49.4,35 C47.6,35 46.1,34.1 45.1,32.4 C42.9,34.2 40.7,35 38,35 C33.9,35 31.5,32.8 31.5,29.1 C31.5,22.5 40.7,20.9 44.9,20.2 L44.9,19.3 L44.9,18.6 C44.9,17.2 44.8,15.5 44,14.6 C43.6,14.2 43.1,14 42.4,14 C40.6,14 40.1,15.4 39.6,17 L39.5,17.2 C38.8,19.4 37.6,20.6 36.1,20.6 C34.7,20.6 33.1,19.5 33.1,17.7 C33,15.7 35,11.9 43,11.9 L43,11.9 Z M41,31.8 C42.7,31.8 44.3,30.2 44.8,29.5 L44.8,22.8 C41.8,23.2 38.4,24.6 38.4,28.5 C38.3,30.6 39.3,31.8 41,31.8 L41,31.8 Z M266.4,3.3 L266.4,5.2 L266.7,5.2 C268.9,5.5 269.4,6.9 269.4,9.2 L269.4,29.2 C269.3,32.5 268.2,32.5 266.9,32.5 L266.6,32.5 L266.6,34.5 L278.8,34.5 L278.8,32.5 L278.5,32.5 C277.3,32.5 276.1,32.3 276.1,29.9 L276.1,17.9 C276.3,17.8 276.8,17.5 276.8,17.5 C277.8,16.9 278.8,16.3 279.9,16.3 C282.2,16.3 282.7,18.5 282.7,19 L282.7,29.1 C282.6,32.4 281.5,32.4 280.2,32.4 L279.9,32.4 L279.9,34.4 L292.1,34.4 L292.1,32.4 L291.8,32.4 C290.6,32.4 289.4,32.2 289.4,29.8 L289.4,18.4 C289.4,14.8 286.6,11.9 283.1,11.9 C280.1,11.9 278.1,13.4 276.1,15 L276.1,0.4 L266.4,3.3 L266.4,3.3 Z M219.9,11.5 C221.8,11.5 223.1,13.5 223.1,15.3 C223.1,17.1 221.8,18.5 220.1,18.5 C219.3,18.5 218.5,18.2 217.9,17.8 C217.4,17.6 216.9,17.3 216.5,17.3 C215.8,17.3 214.3,19.1 213.7,20 L213.7,29.8 C213.8,32 214.7,32.4 216.4,32.4 L216.7,32.4 L216.7,34.4 L204,34.4 L204,32.4 L204.3,32.4 C206.1,32.4 207,32.3 207,29.1 L207,20.2 C207,18 206.5,16.5 204.3,16.2 L204,16.2 L204,14.3 L213.7,11.4 L213.7,16 C215.2,14.2 217.5,11.5 219.9,11.5 L219.9,11.5 Z M107.5,1.3 L105.3,10.7 L107.4,11.3 L107.5,11.1 C109.4,8.1 112.5,4.4 116.7,3.7 L116.7,28.6 C116.7,31.5 115.8,32.4 112.9,32.4 L112.6,32.4 L112.6,34.5 L128.4,34.5 L128.4,32.4 L128.1,32.4 C126.6,32.4 125.7,32.2 125.1,31.6 C124.5,31 124.3,30.1 124.3,28.6 L124.3,3.7 C128,4 131.5,7.7 133.6,11.1 L133.7,11.3 L135.8,10.7 L133.4,1.3 L107.5,1.3 L107.5,1.3 L107.5,1.3 Z M157.9,0.4 L157.9,30 C157.9,31.1 158.1,31.8 158.7,32.2 C159.2,32.6 159.8,32.6 160.4,32.6 L160.7,32.6 L160.7,34.6 L148.4,34.6 L148.4,32.6 L148.7,32.6 C150,32.6 151.2,32.6 151.2,29.3 L151.2,9.3 C151.2,7 150.7,5.6 148.5,5.3 L148.2,5.3 L148.2,3.4 L157.9,0.4 L157.9,0.4 Z M130.9,15.9 L130.9,15.9 C129.1,18.2 128.1,21.2 128.1,24.2 C128.1,30.4 132.9,35.1 139.3,35.1 C143.3,35.1 146.3,33.6 149.1,30 L149.3,29.8 L147.8,28.5 L147.6,28.7 C146.5,29.9 144.3,31.9 141.6,31.9 C139.6,31.9 137.9,31 136.6,29.2 C135.5,27.7 134.8,25.8 134.8,23.8 L149.1,23.8 L149.1,23.5 L149.1,23.2 C149.1,20 148,17.1 146.1,15 C144.3,13 141.7,12 139,12 C135.7,11.9 132.9,13.3 130.9,15.9 L130.9,15.9 Z M139.2,14.5 C141.9,14.5 143,16.5 143,21.2 L134.7,21.2 C134.8,18.5 135.9,14.5 139.2,14.5 L139.2,14.5 Z M170.3,11.9 C173.1,11.9 175.6,13 177.4,14.9 C179.3,17 180.4,19.9 180.4,23.1 L180.4,23.4 L180.4,23.7 L166.1,23.7 C166.2,27.6 168.8,31.8 173,31.8 C175.8,31.8 178,29.8 179,28.6 L179.2,28.4 L180.7,29.7 L180.5,29.9 C177.6,33.5 174.7,35 170.7,35 C164.3,35 159.5,30.3 159.5,24.1 C159.5,21.1 160.5,18.2 162.3,15.8 L162.3,15.8 C164.3,13.3 167,11.9 170.3,11.9 L170.3,11.9 Z M166,21.2 L174.3,21.2 C174.2,16.4 173.1,14.5 170.5,14.5 C167.2,14.5 166.1,18.5 166,21.2 L166,21.2 Z M195.7,12.7 C194.3,12.3 193,12 191.8,12 C189.3,12 185.8,12.7 183.5,15.1 C182.1,16.5 181.4,18.2 181.4,20.1 L181.4,20.2 C181.4,22.9 182.8,25 185.6,26.6 C185.5,26.7 185.3,26.8 185.3,26.8 C183.6,27.6 181.5,28.7 181.5,31 L181.5,31.1 C181.5,33.1 182.7,34 184.1,34.9 C182.6,35.4 180.4,36.4 180.4,38.8 C180.4,38.8 180.4,38.8 180.4,38.9 C180.4,41.9 183.9,43.6 190.3,43.7 C201.9,43.9 203.7,39.4 203.8,36.6 L203.8,36.5 C203.8,34 202.4,32.3 199.6,31.4 C198.2,30.9 194.9,30.6 192.3,30.2 C190.6,30 188.9,29.8 188.4,29.6 C187.7,29.3 187.6,29 187.6,28.7 L187.6,28.7 C187.6,28.3 188.2,28 188.6,27.8 C189.6,28 190.5,28.2 191.3,28.2 C193.9,28.2 197.4,27.5 199.7,25.2 C201,23.9 201.7,22.2 201.7,20.3 L201.7,20.2 C201.7,17 199.8,15.2 198.1,13.9 C198.2,13.8 198.4,13.7 198.5,13.7 C198.7,13.7 199,13.9 199.4,14 C199.9,14.2 200.5,14.5 201.2,14.5 C202.8,14.5 204.1,13.2 204.2,11.6 C204.2,10.8 203.9,10.1 203.4,9.6 C202.9,9 202.1,8.7 201.3,8.7 C199,8.5 196.9,10.6 195.7,12.7 L195.7,12.7 Z M188.1,19.8 C188.1,18.4 188.5,16.4 189.7,15.3 C190.3,14.7 191.1,14.4 192,14.4 C192.8,14.4 193.4,14.7 194,15.3 C195.1,16.5 195.5,18.8 195.5,20.5 C195.5,22.5 194.6,25.9 191.7,25.8 C188.2,25.7 188.1,20.8 188.1,19.8 L188.1,19.8 Z M185.7,38.3 L185.7,38.3 C185.7,37.3 186.2,36.5 187.1,35.8 C187.4,35.8 193.9,37 193.9,37 C197.6,37.5 197.8,37.9 197.8,38.8 L197.8,39 C197.8,39.4 197.6,39.8 197.3,40.2 C196.4,41.1 194.2,41.6 191.1,41.5 C188.7,41.3 185.7,40.8 185.7,38.3 L185.7,38.3 Z M233.6,11.9 C234.6,11.9 238.1,12 240,13.6 C242.1,15.4 242.1,17.6 242.1,19.5 L242.1,29 L242.1,29.3 C242.1,30.5 242.2,31.2 243.2,31.2 C243.5,31.2 243.8,31.1 244.2,31 L244.5,30.9 L245,32.1 L244.9,32.2 C243.8,33.9 241.8,35 240,35 C238.2,35 236.7,34.1 235.7,32.4 C233.5,34.2 231.3,35 228.6,35 C224.5,35 222.1,32.8 222.1,29.1 C222.1,22.5 231.3,20.9 235.5,20.2 L235.5,19.3 L235.5,18.6 C235.5,17.2 235.4,15.5 234.6,14.6 C234.2,14.2 233.7,14 233,14 C231.2,14 230.7,15.4 230.2,17 L230.1,17.2 C229.4,19.4 228.2,20.6 226.7,20.6 C225.3,20.6 223.7,19.5 223.7,17.7 C223.6,15.7 225.7,11.9 233.6,11.9 L233.6,11.9 Z M231.6,31.8 C233.3,31.8 234.9,30.2 235.4,29.5 L235.4,22.8 C232.4,23.2 229,24.6 229,28.5 C228.9,30.6 229.9,31.8 231.6,31.8 L231.6,31.8 Z M243.1,14.3 L243.1,16.2 L243.4,16.2 C245.6,16.5 246.1,17.9 246.1,20.2 L246.1,37.6 C246,40.9 244.9,40.9 243.6,40.9 L243.3,40.9 L243.3,42.9 L255.5,42.9 L255.5,40.9 L255.2,40.9 C254,40.9 252.8,40.7 252.8,38.3 L252.8,33 C254.3,34.1 256.2,35.1 258.5,35.1 C261.8,35.1 267.9,31.6 267.9,23.2 C267.9,17.6 265.1,12 258.8,12 C256.6,12 254.4,12.9 252.8,14.5 L252.8,11.4 L243.1,14.3 L243.1,14.3 Z M257.1,15.2 C260.8,15.2 261.2,20.6 261.2,22.9 C261.2,23.8 261.1,32.1 256.7,32.1 C255,32.1 254,31.2 252.8,29.9 L252.8,17.7 C253.7,16.5 255.2,15.2 257.1,15.2 L257.1,15.2 Z M39.4,3.4 L39.4,3.4 L39.3,3.5 L38.9,3.6 L38.8,3.6 L38.8,3.5 C38.2,2.5 37.3,1.5 36.2,1.4 L36.2,8.3 C36.2,9.1 36.4,9.3 37.2,9.3 L37.3,9.3 L37.3,9.4 L37.3,10 L37.3,10.1 L37.2,10.1 L33,10.1 L32.9,10.1 L32.9,10 L32.9,9.6 L32.9,9.5 L33,9.5 C33.8,9.5 34,9.3 34,8.5 L34,1.6 C32.8,1.8 32,2.8 31.5,3.6 L31.5,3.7 L31.4,3.7 L31,3.5 L30.9,3.5 L30.9,3.4 L31.5,0.9 L31.5,0.8 L31.6,0.8 L38.7,0.8 L38.8,0.8 L38.8,0.9 L39.4,3.4 L39.4,3.4 Z M46,8.8 L46,5.6 C46,4.6 45.2,3.8 44.2,3.8 C43.4,3.8 42.8,4.2 42.3,4.6 L42.3,0.7 L42.3,0.6 L42.2,0.6 L39.7,1.4 L39.6,1.4 L39.6,1.5 L39.6,1.9 L39.6,2 L39.7,2 C40.3,2.1 40.4,2.5 40.4,3.1 L40.4,8.7 C40.4,9.6 40.1,9.6 39.7,9.6 L39.6,9.6 L39.6,9.7 L39.6,10 L39.6,10.1 L39.7,10.1 L43,10.1 L43.1,10.1 L43.1,10 L43.1,9.6 L43.1,9.5 L43,9.5 C42.7,9.5 42.4,9.4 42.3,8.8 L42.3,5.5 C42.4,5.5 42.4,5.4 42.5,5.4 C42.8,5.2 43.1,5.1 43.3,5.1 C43.9,5.1 44.1,5.7 44.1,5.8 L44.1,8.6 C44.1,9.5 43.8,9.5 43.4,9.5 L43.3,9.5 L43.3,9.6 L43.3,10 L43.3,10.1 L43.4,10.1 L46.6,10.1 L46.7,10.1 L46.7,10 L46.7,9.6 L46.7,9.5 L46.6,9.5 C46.4,9.5 46,9.5 46,8.8 L46,8.8 Z M52.6,8.8 L52.6,8.8 C51.7,9.9 50.9,10.3 49.8,10.3 C48,10.3 46.6,9 46.6,7.2 C46.6,6.4 46.9,5.5 47.4,4.9 C48,4.2 48.8,3.8 49.7,3.8 C50.5,3.8 51.1,4.1 51.6,4.6 C52.2,5.2 52.5,6.1 52.5,7 L52.5,7.1 L52.4,7.1 L48.5,7.1 C48.5,8.2 49.3,9.3 50.4,9.3 C51.2,9.3 51.8,8.8 52.1,8.4 L52.2,8.3 L52.3,8.4 L52.6,8.8 L52.6,8.8 L52.6,8.8 Z M50.8,6.4 C50.8,5.1 50.5,4.6 49.7,4.6 C48.8,4.6 48.5,5.7 48.5,6.4 L50.8,6.4 L50.8,6.4 Z" id="path-1"></path>
    </defs>
    <g id="Page-1" stroke="none" stroke-width="1" fill="none" fill-rule="evenodd">
        <g id="DT-Full-Logo">
            <mask id="mask-2" fill="white">
                <use xlink:href="#path-1"></use>
            </mask>
            <use id="DT" fill="#0E0E0E" xlink:href="#path-1"></use>
        </g>
    </g>
</svg>