<?xml version="1.0" encoding="UTF-8" standalone="no"?>
<svg width="180px" height="180px" viewBox="0 0 180 180" version="1.1" xmlns="http://www.w3.org/2000/svg" xmlns:xlink="http://www.w3.org/1999/xlink">
    <!-- Generator: Sketch 3.7.2 (28276) - http://www.bohemiancoding.com/sketch -->
    <title>courier-mail-icon</title>
    <desc>Created with Sketch.</desc>
    <defs>
        <linearGradient x1="50%" y1="0%" x2="50%" y2="100%" id="linearGradient-1">
            <stop stop-color="#237ABD" offset="0%"></stop>
            <stop stop-color="#1566A5" offset="100%"></stop>
        </linearGradient>
        <path d="M51.9428571,102.544789 L62.1158954,94.5158149 L62.1158954,70.9568612 C63.0623742,71.9419718 63.9702213,72.708169 64.8008048,73.3134004 L64.8008048,106.877988 C64.3050302,106.942374 63.8028169,106.981006 63.3263581,106.981006 C59.0575453,106.981006 55.1299799,105.332716 51.9428571,102.544789 L51.9428571,102.544789 Z M80.0603622,98.5721529 C75.971831,102.628491 70.7694165,105.506559 66.5134809,106.549618 L66.5134809,74.3435815 C69.3593561,75.7922736 71.2008048,75.2836217 71.2008048,75.2836217 C74.2205231,75.2836217 78.8885312,71.7166197 79.6997988,68.3878471 C73.0486922,73.6160161 65.1806841,63.4494165 65.1806841,63.4494165 L51.5694165,77.6981087 L51.5694165,102.20998 C47.0301811,98.0377465 44.1070423,91.5089738 44.1070423,84.1689336 C44.1070423,74.3049497 48.0474849,67.0679276 54.5955734,63.6168209 L54.5826962,63.6168209 C41.7311871,64.0095775 30,75.6248692 30,89.9121932 C30,105.158873 41.1323944,116.207565 55.2523139,116.207565 C65.1806841,116.207565 76.0040241,108.854648 80.0925553,98.5850302 L80.0603622,98.5721529 Z M80.0957746,69.767002 L90.1078471,63 L99.5726358,69.5738431 L112.424145,63.0128773 L121.966197,69.5738431 L134.122334,63.1738431 L145.158149,70.0953722 L145.145272,105.668813 L150,108.424547 L142.131992,115.745272 L132.216499,110.472032 L132.242254,75.7678068 L124.470825,71.1963783 L122.886922,72.4197183 L122.841851,105.668813 L127.696579,108.424547 L119.815694,115.745272 L109.893763,110.472032 L109.893763,75.7678068 L101.768209,71.2285714 L100.107042,72.4197183 L100.081288,105.668813 L104.936016,108.424547 L97.0744467,115.745272 L87.1589537,110.472032 L87.1653924,73.404829 L80.0957746,69.767002 Z" id="path-2"></path>
        <filter x="-50%" y="-50%" width="200%" height="200%" filterUnits="objectBoundingBox" id="filter-3">
            <feOffset dx="0" dy="0" in="SourceAlpha" result="shadowOffsetOuter1"></feOffset>
            <feGaussianBlur stdDeviation="2" in="shadowOffsetOuter1" result="shadowBlurOuter1"></feGaussianBlur>
            <feColorMatrix values="0 0 0 0 0.0156862745   0 0 0 0 0.282352941   0 0 0 0 0.48627451  0 0 0 1 0" type="matrix" in="shadowBlurOuter1"></feColorMatrix>
        </filter>
    </defs>
    <g id="Page-1" stroke="none" stroke-width="1" fill="none" fill-rule="evenodd">
        <g id="courier-mail-icon">
            <rect id="bg-fill" fill="url(#linearGradient-1)" x="0" y="0" width="180" height="180"></rect>
            <g id="CM">
                <use fill="black" fill-opacity="1" filter="url(#filter-3)" xlink:href="#path-2"></use>
                <use fill="#FEFEFE" fill-rule="evenodd" xlink:href="#path-2"></use>
            </g>
        </g>
    </g>
</svg>