<?xml version="1.0" encoding="UTF-8" standalone="no"?>
<svg width="606px" height="49px" viewBox="0 0 606 49" version="1.1" xmlns="http://www.w3.org/2000/svg" xmlns:xlink="http://www.w3.org/1999/xlink">
    <!-- Generator: Sketch 3.7.2 (28276) - http://www.bohemiancoding.com/sketch -->
    <title>the-australian-full</title>
    <desc>Created with Sketch.</desc>
    <defs></defs>
    <g id="Page-1" stroke="none" stroke-width="1" fill="none" fill-rule="evenodd">
        <g id="the-australian-full">
            <g>
                <path d="M596.2959,1.1729 L596.1639,1.4759 L596.2019,2.0469 L595.8849,2.4709 L595.9249,2.8409 L595.8579,3.4769 L595.6599,4.1509 L595.6729,4.7339 L595.7659,5.1199 L595.5409,5.5429 L595.5139,6.4429 L595.2769,6.9059 L595.1709,7.2779 L594.7599,7.6219 L594.0589,7.3299 L593.5809,6.8419 L593.1049,6.6939 L592.4819,6.2709 L592.0699,6.0459 L591.0389,5.3719 L590.5489,5.1319 L590.9079,3.8679 L590.8809,3.4769 L591.2619,3.3859 L591.7069,2.6169 L591.3759,2.2259 L591.1579,2.3119 L590.8269,1.9879 L590.4569,2.5889 L590.1459,2.4239 L589.5819,2.2919 L588.9209,2.0669 L588.5699,1.9929 L588.1729,1.6689 L587.3969,1.6169 L587.8619,1.9349 L588.0199,2.3689 L587.8069,2.6039 L587.2659,2.6969 L586.7079,2.5639 L586.3249,2.8409 L586.0859,3.0939 L585.8869,3.4259 L586.0729,3.8869 L585.5289,4.0869 L585.4779,4.3269 L585.1469,4.6829 L585.4899,4.9989 L585.5019,5.4109 L585.1739,5.3449 L584.6959,5.1319 L584.4049,5.3049 L584.3119,5.7939 L584.1789,5.8869 L584.2199,5.0519 L583.8479,4.9479 L583.5839,4.5759 L583.3309,4.4179 L582.9489,4.5239 L582.7639,4.8939 L582.3119,5.1079 L582.0619,4.8809 L581.6639,5.1459 L581.3869,5.9119 L581.0809,6.1379 L581.3329,6.5889 L581.2789,6.9859 L580.7229,7.1459 L580.4459,7.0119 L580.3519,7.3299 L580.6049,7.8469 L580.4599,8.3369 L580.0489,7.5939 L579.8759,7.1979 L579.5449,7.5149 L579.2809,7.8999 L579.3719,8.3769 L579.5589,8.8929 L578.9479,9.5539 L578.7499,10.2299 L578.3659,10.5739 L577.9569,10.6539 L577.4529,10.9329 L576.9629,11.0229 L576.6199,11.6089 L576.1429,11.3819 L575.6269,11.9899 L575.1349,11.8459 L574.6189,12.2559 L574.3409,12.7709 L573.9979,12.7989 L573.6659,13.3549 L573.4409,13.7779 L573.0169,13.4999 L572.9779,13.9919 L572.9099,14.3079 L573.0829,14.9039 L573.0169,15.4989 L573.0699,15.9229 L573.4539,16.5469 L573.8519,16.7839 L573.7849,17.5119 L573.3339,17.1959 L573.4139,17.5529 L573.0979,17.4589 L573.5209,18.1879 L573.8369,18.6109 L574.2619,19.3809 L574.6459,19.8699 L575.2279,20.1869 L575.2409,20.9549 L575.4919,21.5779 L576.2609,22.6369 L576.2749,23.2329 L576.3939,23.9609 L576.0899,24.2129 L576.3399,24.7039 L576.7789,24.9529 L577.3609,25.2579 L578.7649,24.9529 L579.5849,24.4239 L579.8899,24.0799 L580.4709,23.7889 L581.0409,23.6959 L581.3869,24.0149 L581.8759,23.6839 L582.2069,23.6709 L582.6709,23.3909 L582.8029,22.8229 L582.9489,22.6369 L583.9419,21.9339 L584.6419,22.0799 L585.9279,21.4979 L586.2719,21.1809 L587.0129,20.9959 L587.7409,21.1289 L588.0469,21.0349 L588.4159,21.2199 L588.8269,21.5119 L589.3699,21.4729 L589.8609,21.6179 L590.2709,22.3579 L590.6029,22.4529 L590.6679,22.7429 L591.1579,23.6559 L591.7409,23.9479 L591.7939,23.6299 L591.9529,23.2599 L592.2289,22.9539 L592.7609,22.7029 L592.6819,22.2929 L592.7869,22.0939 L593.1429,21.9339 L593.0779,22.6619 L592.6659,23.7359 L592.4429,24.1079 L593.1179,24.0799 L593.2489,23.3259 L593.4889,23.6019 L593.5279,24.1719 L593.3039,24.6499 L593.6349,24.6219 L593.9909,24.4509 L594.3619,25.1919 L594.5209,25.7879 L594.6129,26.2519 L595.5669,27.1399 L596.3739,27.1779 L596.8769,27.4299 L597.3149,27.7219 L597.9759,27.2449 L598.1249,26.9679 L598.2549,27.3639 L598.4959,27.3499 L599.1319,27.8269 L599.7029,27.5639 L600.3469,27.0479 L600.7549,26.9409 L601.2969,26.9929 L601.9029,26.6479 L602.1229,26.1329 L602.1229,25.9349 L602.1949,25.2059 L602.5459,24.3589 L602.7709,23.6839 L602.9949,23.3649 L603.1549,22.8759 L603.6439,22.2009 L603.9219,21.9749 L604.2529,21.5119 L604.5979,20.5719 L604.5579,19.7899 L604.8619,19.5109 L604.9419,19.0749 L605.1549,18.7709 L605.0869,17.0889 L604.9419,17.1039 L605.0079,16.2279 L604.9809,15.7659 L605.0209,15.3279 L605.0079,14.6929 L604.6909,15.0379 L604.3589,14.2689 L603.4729,13.3409 L603.0499,12.2029 L602.6379,11.9779 L602.5719,12.2029 L602.3189,11.8189 L602.1349,11.0509 L601.8309,10.6809 L601.6459,10.0849 L601.1029,9.7919 L600.7979,9.3949 L600.2149,9.2499 L599.7389,8.7869 L599.5399,8.1779 L599.4869,6.9459 L599.1959,6.7339 L598.9969,5.9389 L598.9709,5.2379 L598.7449,4.7469 L598.3089,4.2729 L598.1489,4.2849 L597.8439,4.5239 L597.4209,3.7549 L597.3289,2.9739 L597.1679,2.5099 L597.1429,2.0999 L596.8129,2.0079 L596.7719,1.1599 L596.4529,0.9469 L596.2959,1.1729 Z M597.8579,29.3639 L597.8769,29.8599 L598.2829,30.4229 L598.3089,31.1779 L598.6449,31.7399 L598.9709,32.1459 L599.4419,32.1049 L599.5789,31.6949 L599.8959,31.5159 L600.2019,31.5029 L600.2489,31.0249 L600.4719,30.5809 L600.4339,29.5999 L600.1229,29.4499 L599.6449,29.6419 L599.1959,29.8859 L598.7319,29.5949 L598.3139,29.3509 L597.8579,29.3639 Z" id="map" fill="#F15B46"></path>
                <path d="M1.2984,1.0498 L0.0004,15.9918 L1.9474,15.9918 C2.8114,12.4778 2.8114,6.3238 9.4084,6.3238 L14.1234,6.3238 L14.1234,44.4598 L7.0924,45.3228 L7.0924,47.6338 L32.5814,47.6338 L32.5814,45.3228 L30.6874,45.2168 C25.8204,44.4598 25.5504,44.7838 25.5504,41.0008 L25.5504,6.3238 L30.3894,6.3238 C36.9874,6.3238 37.0964,12.4778 37.9604,15.9918 L39.7984,15.9918 L38.5004,1.0498 L1.2984,1.0498 Z M66.8594,3.5788 L67.6114,3.6898 C72.4754,4.3378 73.0114,4.1198 73.0114,7.9058 L73.0114,21.2668 L58.0694,21.2668 L58.0694,4.4458 L64.2224,3.5788 L64.2224,1.0498 L40.4914,1.0498 L40.4914,3.5788 L42.0294,3.6898 C46.8954,4.2308 47.7074,4.1198 47.7074,7.9058 L47.7074,44.4598 L40.4914,45.3228 L40.4914,47.6338 L64.2224,47.6338 L64.2224,45.3228 L63.4704,45.2168 C58.6034,44.5678 58.0694,44.7838 58.0694,41.0008 L58.0694,25.6588 L73.0114,25.6588 L73.0114,44.4598 L66.8594,45.3228 L66.8594,47.6338 L90.5894,47.6338 L90.5894,45.3228 L89.6754,45.2168 C84.8104,44.6768 84.4374,44.7838 84.4374,41.0008 L84.4374,4.4458 L90.5894,3.5788 L90.5894,1.0498 L66.8594,1.0498 L66.8594,3.5788 Z M117.2544,42.9148 C109.5764,42.9148 109.9264,42.1868 109.9264,36.6738 L109.9264,25.6588 L117.9874,25.6588 C120.3654,25.6588 123.2864,25.6588 123.1784,31.8128 L125.0174,31.8128 L126.3144,15.9918 L124.3674,15.9918 C123.9344,18.6288 123.5034,21.2668 118.9604,21.2668 L109.9264,21.2668 L109.9264,5.4458 L120.8004,5.4458 C126.5304,5.4458 127.3954,8.9618 127.5044,12.4778 L129.3424,12.4778 L130.3154,1.0498 L92.3474,1.0498 L92.3474,3.5788 L93.2614,3.6898 C98.1274,4.2308 98.5004,4.1198 98.5004,7.9058 L98.5004,44.4598 L92.3474,45.3228 L92.3474,47.6338 L130.0994,47.6338 L131.2894,34.4488 L129.4514,34.4488 C127.9354,40.6028 126.0144,42.9148 117.2544,42.9148 L117.2544,42.9148 Z M185.9044,41.8438 L172.1684,1.0498 L162.3264,1.0498 L147.4044,44.4388 L141.5674,45.3228 L141.5674,47.6338 L158.2664,47.6338 L158.2664,45.3228 C153.8734,44.7838 152.1854,44.3208 153.2664,40.9698 C153.4824,40.3208 154.4304,37.0868 155.6214,34.4488 L171.5184,34.4488 L174.9724,44.5378 L167.9354,45.3228 L167.9354,47.6338 L182.2254,47.6338 L192.5444,47.6338 L192.5444,45.3228 L190.3044,45.0988 C188.4664,44.8818 186.8764,44.8698 185.9044,41.8438 L185.9044,41.8438 Z M157.3504,29.1768 C160.3794,20.3878 163.8404,10.3588 163.8404,10.3588 L170.0044,29.1768 L157.3504,29.1768 Z M232.9754,1.0498 L215.3974,1.0498 L215.3974,3.5788 L216.3094,3.6898 C221.1764,4.2308 221.5494,4.1198 221.5494,7.9058 L221.5494,29.5348 C221.5494,36.9978 221.1204,43.3778 211.3874,43.3778 C203.0604,43.3778 201.3344,38.0798 201.3344,30.2918 L201.3344,4.4458 L207.4864,3.5788 L207.4864,1.0498 L183.7554,1.0498 L183.7554,3.5788 L185.1084,3.6898 C189.9754,4.2308 190.7864,4.1198 190.7864,7.9058 L190.7864,30.8328 C190.7864,41.5408 194.5754,48.4598 209.8264,48.4598 C225.9384,48.4598 225.9444,36.9978 225.9444,30.8328 L225.9444,4.4458 L232.9754,3.5788 L232.9754,1.0498 Z M232.8374,33.5368 L232.8414,33.5368 C232.8464,33.4728 232.8454,33.4638 232.8374,33.5368 L232.8374,33.5368 Z M256.8464,20.2328 C248.1924,16.8788 240.4074,15.7938 240.4074,10.8198 C240.4074,6.0618 245.4894,5.1908 249.9234,5.1908 C256.7374,5.1908 260.3054,7.2008 260.1974,15.9918 L262.1444,15.9918 C262.1444,15.9918 263.3344,1.8378 263.3344,2.0538 C259.8744,1.1898 255.1154,-0.0002 250.4634,-0.0002 C242.4614,-0.0002 231.7554,2.4988 231.7554,13.9638 C231.7554,20.5618 234.0264,24.8868 239.8664,27.1558 C243.4354,28.5628 246.5714,29.7508 248.0854,30.2918 C253.3844,32.0248 255.9814,33.9708 255.9814,37.4318 C255.9814,40.4588 254.1424,43.8118 247.5444,43.8118 C243.0014,43.8118 240.0824,42.4048 238.7844,41.8638 C235.2154,40.3518 234.7834,36.0248 234.7834,33.7528 L232.8414,33.5368 C232.7874,34.3318 231.8644,44.7008 231.8644,44.9998 C234.4594,46.8378 240.5154,48.6768 247.2204,48.6768 C253.7104,48.6768 264.7394,45.2148 264.7394,33.4268 C264.7394,26.6138 261.6054,22.0708 256.8464,20.2328 L256.8464,20.2328 Z M266.5774,1.0498 L265.2794,15.9918 L267.2284,15.9918 C268.0924,12.4778 268.0924,6.3238 274.6894,6.3238 L279.5574,6.3238 L279.5574,44.4598 L272.5264,45.3228 L272.5264,47.6338 L298.0154,47.6338 L298.0154,45.3228 L296.1214,45.2168 C291.2544,44.4598 290.9834,44.7838 290.9834,41.0008 L290.9834,6.3238 L295.6694,6.3238 C302.2684,6.3238 302.3754,12.4778 303.2404,15.9918 L305.0784,15.9918 L303.7794,1.0498 L266.5774,1.0498 Z M427.8454,42.6768 C420.1664,42.6768 420.1854,42.1868 420.1854,36.6738 L420.1854,4.4458 L427.2174,3.5788 L427.2174,1.0498 L403.4864,1.0498 L403.4864,3.5788 L404.3994,3.6898 C409.2654,4.2308 409.6384,4.1198 409.6384,7.9058 L409.6384,44.4598 L404.3644,45.3228 L404.3644,47.6338 L438.8574,47.6338 L440.2624,31.8128 L438.4234,31.8128 C436.9094,38.8448 434.6584,42.6768 427.8454,42.6768 L427.8454,42.6768 Z M349.5094,42.5078 C346.9124,29.3148 343.2534,26.8218 336.6564,25.6308 C341.5234,24.9848 348.1204,23.8928 348.1204,13.4008 C348.1204,4.0998 341.4144,1.0498 329.4094,1.0498 L305.9264,1.0498 L305.9264,3.5788 L306.8384,3.6898 C311.7054,4.2308 312.0784,4.1198 312.0784,7.9058 L312.0784,44.4598 L305.9264,45.3228 L305.9264,47.6338 L329.6564,47.6338 L329.6564,45.3228 L328.7424,45.2168 C323.8754,44.6768 323.5034,44.7838 323.5034,41.0008 L323.5034,28.2968 L326.4894,28.2968 C330.8174,28.2968 333.3034,28.4928 334.6024,30.7648 C336.1154,33.5768 336.9814,36.6928 337.8464,40.8018 C338.2774,42.5328 338.9284,45.8748 339.2504,47.6338 L345.9554,47.6338 L353.3874,47.6338 L353.3874,45.3228 C350.7504,44.8928 350.0494,45.2108 349.5094,42.5078 L349.5094,42.5078 Z M329.9504,23.0238 L323.5034,23.0238 L323.5034,5.4458 L329.9504,5.4458 C332.8714,5.4458 338.1694,6.5568 338.1694,13.9108 C338.1694,19.7498 335.3584,23.0238 329.9504,23.0238 L329.9504,23.0238 Z M397.3274,41.8438 L383.5924,1.0498 L373.7504,1.0498 L358.4404,44.4388 L354.2664,45.3228 L354.2664,47.6338 L367.4494,47.6338 L367.4494,45.3228 C364.8134,45.3228 362.3284,44.9698 363.3014,41.9408 C363.5184,41.2928 364.7754,37.9648 366.1804,34.4488 L383.0514,34.4488 L386.4924,44.5378 L380.6334,45.3228 L380.6334,47.6338 L403.4864,47.6338 L403.4864,45.3228 L401.7594,45.2058 C400.5694,44.9898 398.3014,44.8698 397.3274,41.8438 L397.3274,41.8438 Z M368.0194,29.1768 C371.3714,20.3878 375.2664,9.2768 375.2664,9.2768 L381.5374,29.1768 L368.0194,29.1768 Z M440.4004,3.5788 L441.3154,3.6898 C446.1804,4.2308 446.5524,4.1198 446.5524,7.9058 L446.5524,44.4598 L440.4004,45.3228 L440.4004,47.6338 L464.1314,47.6338 L464.1314,45.3228 L463.2194,45.2168 C458.3504,44.6768 457.9794,44.7838 457.9794,41.0008 L457.9794,4.4458 L464.1314,3.5788 L464.1314,1.0498 L440.4004,1.0498 L440.4004,3.5788 Z M509.6904,41.8438 L495.9564,1.0498 L486.1154,1.0498 L471.0204,44.4388 L465.0104,45.3228 L465.0104,47.6338 L482.5894,47.6338 L482.5894,45.3228 C477.3164,44.7838 476.2404,44.3208 477.3214,40.9698 C477.5384,40.3208 478.2204,37.0868 479.4104,34.4488 L495.3084,34.4488 L498.5884,44.5378 L491.3774,45.3228 L491.3774,47.6338 L506.0154,47.6338 L515.9874,47.6338 L515.9874,45.3228 L513.9214,45.0988 C512.0824,44.8818 510.6654,44.8698 509.6904,41.8438 L509.6904,41.8438 Z M481.1414,29.1768 C484.1684,20.3878 487.6294,10.3588 487.6294,10.3588 L493.7934,29.1768 L481.1414,29.1768 Z M547.6294,1.0498 L547.6294,3.5788 L548.9824,3.6898 C553.8494,4.2308 554.6604,4.1198 554.6604,7.9058 L554.6604,31.9148 L534.0224,1.0498 L515.9874,1.0498 L515.9874,3.5788 L517.9884,3.6898 C522.8564,4.4458 522.8654,4.1198 522.8654,7.9058 L522.8654,44.4598 L517.7454,45.3228 L517.7454,47.6338 L534.4444,47.6338 L534.4444,45.3228 L533.5314,45.2168 C528.6664,44.6768 528.2914,44.7838 528.2914,41.0008 L528.2914,11.8008 L551.7584,47.6338 L559.3954,47.6338 L559.3954,4.4458 L565.2074,3.5788 L565.2074,1.0498 L547.6294,1.0498 Z" id="the-australian" fill="#004563"></path>
            </g>
        </g>
    </g>
</svg>